<?xml version="1.0" encoding="utf-8"?>
<!-- Generator: Adobe Illustrator 27.4.1, SVG Export Plug-In . SVG Version: 6.00 Build 0)  -->
<svg version="1.1" id="Layer_1" xmlns="http://www.w3.org/2000/svg" xmlns:xlink="http://www.w3.org/1999/xlink" x="0px" y="0px"
	 viewBox="0 0 283.46 113.39" style="enable-background:new 0 0 283.46 113.39;" xml:space="preserve">
<style type="text/css">
	.st0{fill:none;stroke:#000000;stroke-miterlimit:10;}
</style>
<g>
	<path d="M114.21,30.27c0,1.37-0.17,2.73-0.35,3.75c-0.25,1.08-0.56,1.79-0.95,1.79c-0.42,0.04-0.67-0.67-0.81-1.54
		c-0.14-0.88-0.21-1.96-0.21-2.7v-0.1c-0.17,0.03-0.38,0.07-0.63,0.07c-0.25,0.04-0.49,0.07-0.63,0.07
		c-0.46,0.1-0.98,0.18-1.44,0.32c-0.46,0.1-0.84,0.24-0.94,0.24c-0.42,0.14-1.05,0.21-2.21-0.07c-0.28-0.04-0.67-0.14-0.91-0.25
		c-0.03,1.54-0.35,2.8-1.44,2.8c-0.56,0-0.81-0.84-0.81-1.23l-8.86,0.1l-0.07,0.25c-0.04,0.17-0.07,0.35-0.17,0.52
		c-0.18,0.42-0.49,0.81-1.02,0.81c-0.81,0-1.02-0.91-1.02-3.15v-7.84c0-0.46-0.14-1.02-0.42-1.29c-0.46-0.31-1.26-0.7-2.1-0.84
		c-0.52-0.07-0.7-0.28-0.56-0.59c0.18-0.35,0.49-0.53,0.95-0.53c0.42,0,1.16,0.1,1.96,0.21c0.74,0.14,1.51,0.28,2.03,0.39
		c0.42,0.14,0.7,0.49,0.56,1.08c-0.14,0.32-0.14,0.91-0.14,1.33v1.4l8.86-0.1v-2.45c0-0.42-0.17-0.95-0.42-1.23
		c-0.42-0.32-1.26-0.7-2.1-0.84c-0.49-0.07-0.67-0.28-0.52-0.63c0.14-0.35,0.46-0.52,0.91-0.52c0.42,0,1.23,0.1,1.96,0.21
		c0.81,0.14,1.54,0.28,2.07,0.42c0.38,0.14,0.67,0.52,0.52,1.08c-0.14,0.28-0.14,0.84-0.14,1.26v1.33c0.39,0,0.88,0.04,1.33,0.04
		h1.37c0.73,0,1.47-0.04,2.14-0.07c0.7-0.03,1.33-0.1,1.89-0.14v-2.07c0-1.4-0.04-1.79-0.6-2.17c-0.73-0.46-1.89-0.91-2.87-1.08
		c-0.56-0.04-0.67-0.35-0.52-0.63c0.14-0.25,0.52-0.53,0.94-0.53c0.67,0,1.61,0.14,2.56,0.28c0.98,0.14,1.89,0.35,2.56,0.52
		c0.38,0.14,0.73,0.53,0.56,1.12c-0.28,0.84-0.32,1.58-0.32,2.42V30.27z M102.91,31.91v-5.25l-8.86,0.1v5.25L102.91,31.91z
		 M101.51,49.38c-0.88,0.03-1.82-0.04-2.52-0.35c-0.7-0.28-1.15-0.91-1.15-2.03v-1.96c0-1.54-0.42-1.65-1.86-1.89
		c-0.52-0.07-0.7-0.28-0.56-0.63c0.14-0.39,0.53-0.56,1.19-0.56s1.29,0.07,1.96,0.17c0.6,0.04,1.26,0.14,1.82,0.14
		c1.02,0.04,3.15,0.07,5.36,0.07c2.14,0,4.41-0.03,5.71-0.07l0.1-4.03c-1.5,0-3.4,0.04-5.25,0.07c-1.82,0.04-3.61,0.1-4.73,0.21
		c-0.1,0.03-0.31,0.14-0.49,0.17c-0.25,0.1-0.53,0.17-0.7,0.17c-0.46,0.14-0.91,0.14-1.58-0.03c-0.67-0.14-1.82-0.6-2.49-1.02
		c-0.38-0.18-0.63-0.56-0.59-0.81c0.1-0.28,0.45-0.42,1.44-0.28c1.54,0.25,3.01,0.28,4.31,0.28c1.02,0,3.05-0.04,4.9-0.07
		c1.93,0,3.71-0.07,4.52-0.18c0.07,0,0.14,0,0.21-0.04l0.25-0.14c0.14-0.04,0.28-0.14,0.52-0.18c0.67,0,1.47,0,2.17,0.14
		c0.88,0.17,0.81,0.81,0.52,1.12c-0.1,0.25-0.24,0.42-0.35,0.6c-0.1,0.14-0.21,0.31-0.21,0.46l-0.7,3.54
		c0.7,0.04,1.23,0.25,1.23,0.81c0,0.46-0.46,0.63-1.61,0.63h-12.74v3.05c0,0.84,0.7,1.23,1.44,1.23l6.93-0.1
		c0.88,0,1.65,0,2.45-0.38c0.14-0.04,0.39-0.11,0.67-0.21c0.28-0.1,0.56-0.17,0.81-0.21h1.4c0.52,0,0.94,0.04,1.33,0.07
		c1.02,0.17,1.4,0.73,1.4,1.19c-0.03,0.52-0.52,0.91-1.54,0.91L101.51,49.38z M111.9,24.91c-0.17,0.04-0.42,0.07-0.6,0.07
		c-0.24,0.04-0.46,0.07-0.63,0.07c-0.88,0.14-2.17,0.52-2.35,0.56c-0.46,0.14-1.08,0.21-2.24-0.07c-0.17,0-0.35-0.07-0.49-0.1
		c-0.17-0.03-0.31-0.1-0.42-0.14v5.04c0.39,0,0.81,0.03,1.33,0.03h1.33c0.74,0,1.47-0.03,2.17-0.07s1.33-0.1,1.89-0.14V24.91z"/>
</g>
<g>
	<path d="M140.39,78.84c0,1.29-0.14,2.49-0.42,3.5c-0.28,1.01-0.63,1.5-1.05,1.5c-0.42,0.04-0.63-0.49-0.77-1.29
		c-0.14-0.74-0.17-1.82-0.17-2.8v-4.2c-1.47,0.04-2.91,0.07-4.31,0.14c-1.37,0.07-2.38,0.14-3.05,0.21
		c-0.42,0.1-0.81,0.14-1.12,0.25l-0.56,0.14c-0.17,0.04-0.38,0.11-0.6,0.14c-0.7,0.14-1.23,0.11-2.31-0.17
		c-0.84-0.14-2.06-0.52-2.91-0.91c-1.05-0.42-1.44-0.77-1.16-1.08c0.28-0.32,0.91-0.42,1.89-0.35c1.51,0.14,3.19,0.28,6.69,0.31
		c1.93,0.04,4.94,0,7.74,0c2.77-0.04,5.32-0.1,6.3-0.14c1.26,0,2.21-0.11,2.48-0.21c0.28-0.04,0.56-0.17,0.95-0.28
		c0.32-0.14,0.67-0.25,1.05-0.28c1.54-0.14,2.69-0.07,3.92,0.07c0.98,0.14,1.61,0.67,1.61,1.33c0,0.7-0.88,0.98-1.86,0.95
		c-1.22,0-2.55-0.07-3.92-0.11c-1.4-0.04-2.77-0.07-3.92-0.1c-1.12,0-2.8,0.04-4.52,0.07V78.84z M138.78,59.1
		c2.35-0.04,4.52-0.11,5.18-0.21c0.14,0,0.35-0.07,0.53-0.18c0.17-0.1,0.38-0.17,0.63-0.17c0.56,0,1.75,0,2.45,0.14
		c0.95,0.25,0.77,0.91,0.35,1.33c-0.25,0.28-0.49,0.59-0.6,0.98l-1.01,7.21c0.14,0,0.38,0.04,0.67,0.04
		c0.28,0.04,0.74,0.21,0.74,0.63c0,0.7-0.84,0.77-1.68,0.77l-13.55,0.07c-0.1,0.98-0.53,1.61-1.09,1.61c-0.52,0-0.91-0.56-0.94-2
		l-0.7-8.05c-0.1-0.88-0.98-1.12-2.24-1.4c-0.42-0.07-0.6-0.28-0.49-0.63c0.1-0.35,0.6-0.53,1.44-0.53
		c0.73,0.04,1.61,0.14,2.42,0.25c0.84,0.14,1.54,0.21,2,0.21C133.98,59.17,136.43,59.13,138.78,59.1z M132.69,85.84
		c0,0.84,0.63,1.19,1.33,1.19l9.1-0.07c0.42,0,1.16-0.31,1.33-0.46c0.42-0.25,1.08-0.38,1.65-0.42c0.74-0.04,1.96-0.07,2.8,0.04
		c0.98,0.14,1.4,0.84,1.37,1.29c-0.14,0.53-0.8,0.91-1.79,0.91l-14.53,0.14c-0.94,0-1.79-0.14-2.52-0.46
		c-0.73-0.28-1.08-0.98-1.08-2.07v-3.4c0-0.46-0.14-0.98-0.42-1.26c-0.46-0.32-1.4-0.56-2.27-0.7c-0.49-0.07-0.67-0.28-0.53-0.67
		c0.14-0.39,0.42-0.56,0.88-0.56s1.29,0.07,2.14,0.11c0.8,0.1,1.61,0.17,2.14,0.31c0.42,0.14,0.73,0.6,0.59,1.16
		c-0.14,0.28-0.17,0.91-0.17,1.37V85.84z M132.23,60.43l0.25,7.84l11.97-0.04l0.35-7.91L132.23,60.43z"/>
</g>
<line class="st0" x1="120.47" y1="14.14" x2="120.47" y2="102.02"/>
<line class="st0" x1="24.11" y1="53.83" x2="259.35" y2="53.83"/>
<line class="st0" x1="85.04" y1="14.14" x2="85.04" y2="69.42"/>
<g>
	<path d="M68.63,27.8c-1.86,0.17-3.85,0.39-5.53,0.56c-0.7,0.04-1.23,0.25-1.79,0.42c-0.39,0.14-0.63,0.21-0.95,0.25
		c-0.28,0.04-0.67,0.04-1.12-0.07c-0.84-0.14-2.03-0.49-3.15-0.91c-0.49-0.18-0.7-0.42-0.63-0.77c0.1-0.35,0.63-0.49,1.58-0.42
		c0.95,0.1,2.31,0.14,4.38,0.04c3.96-0.14,8.65-0.52,12.53-0.94c0.1-0.81,0.25-1.79,0.39-2.73c0.1-0.88,0.21-1.68,0.25-2.21
		c-1.23,0.1-3.15,0.21-5.08,0.24c-1.93,0.1-3.85,0.14-5.01,0.14c-0.42,0.04-0.81,0.14-1.19,0.18c-0.38,0.1-0.73,0.24-1.12,0.28
		c-0.25,0.1-0.52,0.21-0.84,0.25c-0.32,0.04-0.7,0.07-1.12-0.07c-1.12-0.25-2.24-0.7-3.05-1.3c-1.12-0.73-0.49-1.23,1.05-1.05
		c0.81,0.14,2.77,0.24,4.69,0.24c4.73,0.14,8.54,0.04,11.1-0.49c0.14,0,0.32-0.1,0.46-0.14c0.14-0.1,0.25-0.14,0.49-0.18
		c0.56,0,1.51,0.04,2.03,0.07c0.84,0.14,1.02,0.81,0.77,1.37c-0.25,0.38-0.6,1.12-0.7,1.5c-0.14,0.95-0.35,2.1-0.59,3.22
		c-0.28,1.12-0.53,2.17-0.67,2.83c-0.25,0.95-0.56,2.14-0.95,3.15c-0.31,1.02-0.7,1.89-0.84,2.28c0.84-0.04,1.61-0.1,1.89-0.21
		c0.28-0.04,0.63-0.18,0.94-0.28c0.39-0.1,0.7-0.17,1.09-0.28c1.5-0.14,2.66-0.04,3.89,0.1c0.98,0.14,1.58,0.67,1.58,1.26
		c0,0.81-0.84,1.09-1.82,1.05c-1.23,0-2.56-0.07-3.92-0.1c-1.4-0.04-2.77-0.07-3.92-0.1c-1.68,0-4.66,0-7.49,0.1
		c-2.84,0.04-5.57,0.17-6.79,0.31c-0.42,0.1-0.8,0.14-1.12,0.25l-0.56,0.14c-0.18,0.03-0.39,0.07-0.6,0.1
		c-0.7,0.14-1.23,0.14-2.31-0.14c-0.84-0.14-2.06-0.52-2.91-0.91c-1.05-0.46-1.44-0.84-1.15-1.12c0.28-0.31,0.91-0.42,1.89-0.35
		c1.5,0.14,3.19,0.28,6.69,0.31c1.79,0.04,4.45,0.04,7,0c2.56-0.03,4.97-0.07,6.23-0.1c0-0.42,0.21-1.57,0.46-2.73
		s0.49-2.35,0.63-3.01c0-0.25,0.07-0.49,0.07-0.6C72.34,27.41,70.48,27.62,68.63,27.8z M61.49,45.97c0,0.84,0.63,1.19,1.33,1.19
		l9.1-0.07c0.42,0,1.16-0.31,1.33-0.46c0.42-0.25,1.09-0.39,1.65-0.42c0.73-0.04,1.96-0.07,2.8,0.03c0.98,0.14,1.4,0.84,1.37,1.3
		c-0.14,0.52-0.81,0.91-1.79,0.91l-14.53,0.14c-0.94,0-1.79-0.14-2.52-0.46c-0.74-0.28-1.09-0.98-1.09-2.06v-4.1
		c0-0.42-0.14-1.01-0.42-1.29c-0.46-0.28-1.4-0.52-2.28-0.7c-0.49-0.07-0.67-0.28-0.52-0.63c0.14-0.39,0.42-0.56,0.88-0.56
		s1.3,0.07,2.14,0.1c0.81,0.1,1.61,0.17,2.14,0.28c0.42,0.14,0.74,0.6,0.56,1.16c-0.14,0.31-0.14,0.95-0.14,1.4V45.97z"/>
</g>
<g>
	<path d="M171.71,63.69c0.25-0.1,0.53-0.21,0.84-0.25c1.16-0.14,2.52-0.14,3.5,0c0.84,0.14,1.29,0.56,1.29,1.23
		c-0.03,0.73-0.8,0.8-1.64,0.8h-2.77c-1.08,0-2.21,0-3.36,0.04c-2.24,0.04-4.38,0.14-5.36,0.17c-0.32,0.04-0.59,0.11-0.88,0.21
		l-0.42,0.14l-0.42,0.1c-0.25,0.11-0.46,0.14-0.74,0.14c-0.28,0.03-0.59,0.03-1.02-0.07c-0.8-0.14-2.17-0.63-2.83-0.91
		c-1.4-0.56-1.16-1.47,0.53-1.33c1.5,0.25,3.71,0.31,5.43,0.28c0.8,0,2.38-0.04,3.81-0.07c1.51-0.04,2.87-0.14,3.33-0.28
		C171.19,63.86,171.44,63.79,171.71,63.69z M162.58,76.53c-1.22-1.05-1.85-2.38-1.85-3.99c0-1.54,0.67-2.91,1.82-3.92
		c1.16-1.01,2.87-1.65,4.94-1.65c2,0,3.75,0.63,4.9,1.65c1.22,1.02,1.89,2.38,1.89,3.92c0,1.61-0.63,2.94-1.89,3.99
		c-1.26,1.05-2.91,1.58-4.9,1.58C165.45,78.11,163.8,77.58,162.58,76.53z M182.25,85.63c-0.03,1.37-0.17,2.7-0.35,3.71
		c-0.25,1.01-0.59,1.68-1.05,1.68c-0.42,0.04-0.63-0.59-0.77-1.44c-0.14-0.8-0.14-1.82-0.14-2.55V81.4
		c-1.08,0.04-2.87,0.11-4.69,0.14c-1.82,0.04-3.71,0.11-4.87,0.14c-0.52,0.04-0.91,0.07-1.33,0.17c-0.42,0.11-0.8,0.21-1.26,0.32
		c-0.59,0.25-1.01,0.28-1.89,0.03c-0.84-0.14-2.34-0.59-3.08-1.01c-0.38-0.14-0.77-0.56-0.67-0.84c0.11-0.28,0.63-0.49,2.14-0.32
		c0.7,0.11,1.75,0.17,3.18,0.21c1.44,0.04,2.91,0.04,4.41,0c3.04,0,5.88-0.17,6.83-0.35c0.17,0,0.35-0.11,0.53-0.14
		c0.17-0.03,0.35-0.14,0.49-0.17c0.52-0.04,1.19-0.04,2.03,0.07c0.7,0.14,0.91,0.63,0.73,1.05c-0.14,0.32-0.25,0.74-0.25,1.16V85.63
		z M170.11,60.15c1.4,0,1.96,0.46,1.92,0.88c-0.04,0.46-0.63,0.91-1.61,0.95c-0.84,0.1-1.58,0.14-2.28,0.14
		c-0.7,0.04-1.33,0.04-1.89-0.07c-0.88-0.1-2.42-0.59-3.26-1.29c-0.67-0.42-0.67-0.73-0.35-0.91c0.32-0.14,0.95-0.17,1.61-0.07
		C166.18,60.19,167.83,60.15,170.11,60.15z M163.21,72.54c0,2.27,1.61,4.03,4.27,4.03c2.66,0,4.34-1.75,4.34-4.03
		c0-2.21-1.71-4.1-4.34-4.1C164.85,68.45,163.21,70.34,163.21,72.54z M182.5,70.86c0.7-0.04,2.1-0.25,2.7-0.84
		c0.21-0.17,0.67-0.28,1.33-0.28c0.7,0,1.3,0.04,1.79,0.11c1.12,0.25,1.61,0.77,1.51,1.29c-0.11,0.46-0.74,0.91-1.72,0.91h-5.6v1.37
		c0,1.29-0.1,2.66-0.35,3.67c-0.17,1.08-0.56,1.79-0.98,1.79c-0.42,0.04-0.67-0.67-0.8-1.54c-0.17-0.88-0.21-1.92-0.21-2.73V62.32
		c0-1.43-0.07-1.86-0.53-2.24c-0.8-0.46-1.96-0.91-2.94-1.08c-0.52-0.04-0.59-0.35-0.46-0.63c0.14-0.25,0.49-0.53,0.91-0.53
		c0.67,0,1.61,0.14,2.59,0.28c0.94,0.14,1.89,0.35,2.55,0.53c0.32,0.14,0.7,0.52,0.53,1.12c-0.28,0.84-0.32,1.58-0.32,2.38V70.86z"
		/>
</g>
<g>
	<path d="M205.92,69.85c0.59,0.46,1.08,0.8,1.33,0.91c0.25,0.14,0.46,0.21,0.63,0.24c0.14,0,0.32,0.04,0.46,0.04
		c0.25,0.04,0.46,0.11,0.88,0.39c0.53,0.38,1.08,0.98,1.5,1.54c0.46,0.52,0.77,1.05,0.88,1.19c0.35,0.91,0.24,1.44-0.32,1.58
		c-0.53,0.11-1.19-0.17-1.96-0.84c-0.7-0.56-1.75-1.47-2.87-2.45c-1.12-0.95-2.28-1.96-3.22-2.77c-2.24,2.8-5.22,5.39-8.16,6.79
		c-0.98,0.46-1.71,0.56-2.1,0.42c-0.28-0.1-0.25-0.42,0.59-0.95c2.13-1.22,4.17-2.87,6.02-4.94c1.89-2.06,3.33-4.38,4.31-7
		c0.42-0.98,0.17-1.54-1.4-2.1c-0.67-0.21-0.91-0.49-0.74-0.88c0.18-0.38,0.7-0.49,1.58-0.35c0.67,0.14,2.21,0.46,3.08,0.84
		c0.73,0.38,0.98,0.77,0.88,1.22c-0.04,0.46-0.42,0.95-0.6,1.4c-0.7,1.54-1.58,3.12-2.55,4.38
		C204.66,68.9,205.33,69.43,205.92,69.85z M217.19,80.07c1.4,1.16,2.1,2.66,2.1,4.55c0,1.89-0.7,3.4-2.07,4.48
		c-1.37,1.12-3.12,1.68-5.29,1.68c-2.13,0-3.89-0.56-5.25-1.68c-1.36-1.08-2.06-2.59-2.06-4.48c0-1.86,0.77-3.47,2.06-4.55
		c1.3-1.08,3.15-1.71,5.25-1.71C214.08,78.35,215.83,78.91,217.19,80.07z M208.41,81.33c-0.84,0.95-1.26,2.03-1.26,3.29
		c0,2.55,1.82,4.62,4.8,4.62c2.94,0,4.8-2.07,4.8-4.62c0-1.26-0.42-2.35-1.26-3.29c-0.84-0.94-2.03-1.43-3.54-1.43
		S209.25,80.38,208.41,81.33z M218.87,69.32c0.7-0.04,2.14-0.25,2.73-0.8c0.21-0.18,0.67-0.28,1.33-0.28s1.29,0.04,1.82,0.1
		c1.12,0.25,1.58,0.74,1.47,1.26c-0.1,0.46-0.73,0.91-1.71,0.91h-5.64v3.22c0,1.29-0.14,2.7-0.32,3.71
		c-0.24,1.08-0.56,1.79-0.98,1.79c-0.42,0.04-0.67-0.67-0.81-1.54c-0.17-0.84-0.21-1.89-0.21-2.7V62.36c0-1.5-0.1-1.89-0.56-2.28
		c-0.81-0.46-1.96-0.91-2.91-1.08c-0.53-0.04-0.63-0.35-0.49-0.63c0.14-0.25,0.49-0.53,0.91-0.53c0.67,0,1.61,0.14,2.59,0.28
		c0.95,0.14,1.89,0.35,2.56,0.53c0.32,0.14,0.7,0.52,0.53,1.12c-0.28,0.84-0.32,1.58-0.32,2.38V69.32z"/>
</g>
<line class="st0" x1="155.91" y1="53.83" x2="155.91" y2="93.52"/>
<line class="st0" x1="191.34" y1="53.83" x2="191.34" y2="102.02"/>
</svg>
